<?xml version="1.0" standalone="no"?>
<!DOCTYPE svg PUBLIC "-//W3C//DTD SVG 20010904//EN"
 "http://www.w3.org/TR/2001/REC-SVG-20010904/DTD/svg10.dtd">
<svg version="1.0" xmlns="http://www.w3.org/2000/svg"
 width="2422.000000pt" height="2422.000000pt" viewBox="0 0 2422.000000 2422.000000"
 preserveAspectRatio="xMidYMid meet">
<metadata>
Created by potrace 1.11, written by Peter Selinger 2001-2013
</metadata>
<g transform="translate(0.000000,2422.000000) scale(0.100000,-0.100000)"
fill="#000000" stroke="none">
<path d="M6537 17802 l-5647 -5647 1113 -1113 1112 -1112 4525 4525 4525 4525
4560 -4560 4560 -4560 1113 1113 1112 1112 -4560 4560 c-3042 3042 -4556 4563
-4550 4570 6 7 -361 381 -1103 1123 l-1112 1112 -5648 -5648z"/>
<path d="M7927 13407 c-2275 -2273 -4137 -4137 -4137 -4142 0 -6 1888 -1898
4195 -4205 l4195 -4195 4142 4140 c2278 2277 4144 4141 4147 4143 6 3 -8391
8391 -8399 8391 -3 0 -1867 -1859 -4143 -4132z m4203 149 c0 -14 5 -28 10 -31
6 -3 10 -15 10 -26 0 -10 5 -19 10 -19 6 0 10 -13 10 -30 0 -16 5 -30 10 -30
6 0 10 -9 10 -19 0 -11 5 -23 10 -26 6 -3 10 -17 10 -29 0 -13 7 -29 15 -36 9
-7 13 -21 10 -30 -3 -9 1 -23 10 -30 8 -7 15 -21 15 -31 0 -10 9 -34 20 -54
11 -20 20 -44 20 -55 0 -10 5 -22 10 -25 6 -3 10 -19 10 -36 0 -16 5 -29 10
-29 6 0 10 -11 10 -25 0 -13 9 -40 20 -60 11 -20 20 -44 20 -55 0 -10 5 -22
10 -25 6 -3 10 -17 10 -30 0 -13 5 -27 10 -30 6 -3 10 -17 10 -30 0 -13 5 -27
10 -30 6 -3 10 -15 10 -26 0 -10 5 -19 10 -19 6 0 10 -10 10 -23 0 -13 7 -32
15 -43 8 -10 15 -29 15 -41 0 -12 5 -25 10 -28 6 -3 10 -15 10 -25 0 -11 9
-35 20 -55 11 -20 20 -44 20 -55 0 -10 5 -22 10 -25 6 -3 10 -17 10 -30 0 -13
5 -27 10 -30 6 -3 10 -19 10 -36 0 -16 5 -29 10 -29 6 0 10 -9 10 -20 0 -11 5
-20 10 -20 6 0 10 -13 10 -29 0 -17 5 -33 10 -36 6 -3 10 -15 10 -25 0 -11 9
-35 20 -55 11 -20 20 -44 20 -54 0 -10 7 -24 16 -32 8 -7 13 -21 11 -30 -3
-10 1 -23 9 -30 8 -6 14 -20 14 -30 0 -11 5 -28 10 -39 6 -11 15 -29 20 -40 6
-11 10 -29 10 -39 0 -11 5 -23 10 -26 6 -3 10 -17 10 -30 0 -13 5 -27 10 -30
6 -3 10 -15 10 -25 0 -11 9 -35 20 -55 11 -20 20 -44 20 -55 0 -10 5 -22 10
-25 6 -3 10 -19 10 -36 0 -16 5 -29 10 -29 6 0 10 -13 10 -30 0 -16 5 -30 10
-30 6 0 10 -9 10 -19 0 -11 5 -23 10 -26 6 -3 10 -17 10 -29 0 -13 7 -29 15
-36 8 -7 15 -21 15 -31 0 -10 9 -34 20 -54 11 -20 20 -44 20 -55 0 -10 5 -22
10 -25 6 -3 10 -19 10 -36 0 -16 5 -29 10 -29 6 0 10 -9 10 -20 0 -11 5 -20
10 -20 6 0 10 -13 10 -29 0 -17 5 -33 10 -36 6 -3 10 -15 10 -25 0 -11 9 -35
20 -55 11 -20 20 -45 20 -56 0 -48 -7 -49 -367 -51 l-338 -3 -3 -84 c-2 -49 1
-88 8 -95 6 -6 10 -127 10 -347 0 -215 4 -340 10 -344 6 -4 10 -108 10 -279 0
-200 3 -275 12 -284 9 -9 13 -98 16 -330 2 -177 7 -326 13 -337 6 -12 8 -130
7 -290 l-3 -270 -405 0 -405 0 -3 304 c-1 196 1 308 8 315 6 6 10 111 10 282
0 171 4 275 10 279 6 4 10 114 10 299 0 163 4 296 9 301 5 6 12 158 15 338 3
217 9 333 16 342 7 8 10 49 8 106 l-3 94 -312 3 c-301 2 -313 3 -313 22 0 10
5 22 10 25 6 3 10 17 10 30 0 13 5 27 10 30 6 3 10 17 10 30 0 13 5 27 10 30
6 3 10 17 10 30 0 13 5 27 10 30 6 3 10 17 10 30 0 13 5 27 10 30 6 3 10 15
10 25 0 10 5 20 11 22 5 2 12 16 13 31 2 16 8 33 15 40 6 6 11 21 11 33 0 13
5 26 10 29 6 3 10 15 10 25 0 11 9 35 20 55 11 20 20 44 20 55 0 10 5 22 10
25 6 3 10 19 10 36 0 16 5 29 10 29 6 0 10 14 10 30 0 17 5 30 10 30 6 0 10
13 10 29 0 17 5 33 10 36 6 3 10 17 10 30 0 13 5 27 10 30 6 3 10 17 10 30 0
13 5 27 10 30 6 3 10 17 10 30 0 13 5 27 10 30 6 3 10 17 10 29 0 13 7 29 15
36 8 7 15 23 15 36 0 12 5 26 10 29 6 3 10 17 10 30 0 14 9 40 20 60 11 20 20
44 20 55 0 10 5 22 10 25 6 3 10 17 10 30 0 13 5 27 10 30 6 3 10 17 10 30 0
13 5 27 10 30 6 3 10 19 10 36 0 16 5 29 10 29 6 0 10 14 10 30 0 17 5 30 10
30 6 0 10 13 10 29 0 17 5 33 10 36 6 3 10 17 10 30 0 13 5 27 10 30 6 3 10
17 10 29 0 13 7 29 16 37 8 7 13 21 11 30 -3 10 1 23 9 30 8 6 14 22 14 35 0
12 5 26 10 29 6 3 10 19 10 36 0 16 5 29 10 29 6 0 10 9 10 19 0 11 5 23 10
26 6 3 10 17 10 30 0 13 5 27 10 30 6 3 10 17 10 30 0 13 5 27 10 30 6 3 10
17 10 30 0 13 5 27 10 30 6 3 10 19 10 36 0 16 5 29 10 29 6 0 10 14 10 30 0
17 5 30 10 30 6 0 10 13 10 29 0 17 5 33 10 36 6 3 10 17 10 29 0 13 6 29 14
35 8 7 12 20 9 30 -2 9 3 23 11 30 9 8 16 24 16 37 0 12 5 26 10 29 6 3 10 17
10 30 0 13 5 27 10 30 6 3 10 15 10 26 0 10 5 19 10 19 6 0 10 14 10 30 0 17
5 30 10 30 6 0 10 10 10 23 0 26 21 77 33 77 4 0 7 -11 7 -24z m-1890 -3306
c8 -11 22 -20 31 -20 9 0 24 -9 34 -20 10 -11 23 -20 30 -20 6 0 22 -11 35
-25 13 -14 29 -25 35 -25 7 0 20 -9 30 -20 10 -11 23 -20 30 -20 7 0 20 -9 30
-20 10 -11 23 -20 30 -20 7 0 20 -9 30 -20 10 -11 23 -20 30 -20 7 0 20 -9 30
-20 10 -11 23 -20 30 -20 7 0 20 -9 30 -20 10 -11 23 -20 30 -20 6 0 22 -11
35 -25 13 -14 29 -25 35 -25 7 0 20 -9 30 -20 10 -11 25 -20 34 -20 9 0 23 -9
31 -20 8 -11 21 -20 30 -20 9 0 22 -9 30 -20 8 -11 22 -20 31 -20 15 0 47 -28
38 -33 -37 -21 -51 -27 -64 -27 -16 0 -50 -17 -77 -39 -10 -8 -27 -11 -42 -7
-16 4 -30 1 -40 -9 -8 -8 -30 -15 -50 -15 -19 0 -38 -4 -41 -10 -3 -5 -21 -10
-40 -10 -19 0 -37 -4 -40 -10 -3 -5 -17 -10 -30 -10 -13 0 -27 -4 -30 -10 -3
-5 -15 -10 -26 -10 -10 0 -19 -4 -19 -10 0 -5 -18 -10 -40 -10 -22 0 -40 -4
-40 -10 0 -5 -9 -10 -20 -10 -11 0 -20 -4 -20 -10 0 -5 -9 -10 -19 -10 -11 0
-23 -4 -26 -10 -3 -5 -15 -10 -25 -10 -11 0 -35 -9 -55 -20 -20 -11 -43 -20
-53 -20 -9 0 -25 -7 -35 -15 -11 -7 -26 -11 -34 -8 -19 7 -81 -25 -114 -59
-15 -16 -32 -28 -39 -28 -6 0 -25 -13 -43 -30 -18 -16 -37 -30 -43 -30 -5 0
-23 -13 -39 -30 -16 -16 -33 -30 -39 -30 -14 0 -106 -91 -106 -105 0 -6 -13
-24 -30 -40 -16 -16 -30 -34 -30 -40 0 -6 -14 -24 -30 -40 -52 -50 -60 -77
-60 -200 l0 -111 35 -34 c19 -19 35 -39 35 -44 0 -14 101 -116 115 -116 6 0
31 -20 55 -45 24 -25 50 -45 58 -45 8 0 27 -13 42 -30 15 -16 35 -30 44 -30 9
0 16 -4 16 -10 0 -5 9 -10 20 -10 11 0 20 -4 20 -10 0 -5 6 -10 14 -10 8 0 40
-13 71 -30 31 -16 65 -30 75 -30 11 0 22 -4 25 -10 3 -5 17 -10 29 -10 13 0
29 -7 36 -15 7 -9 21 -13 30 -10 9 3 23 -1 30 -10 7 -9 29 -15 51 -15 21 0 41
-4 44 -10 3 -5 17 -10 30 -10 13 0 27 -4 30 -10 3 -5 17 -10 30 -10 13 0 27
-4 30 -10 3 -5 28 -10 56 -10 27 0 49 -4 49 -10 0 -5 18 -10 40 -10 22 0 40
-4 40 -10 0 -5 18 -10 39 -10 22 0 43 -4 46 -10 3 -5 21 -10 40 -10 19 0 37
-4 40 -10 3 -5 33 -10 65 -10 32 0 62 -4 65 -10 3 -5 35 -10 70 -10 35 0 67
-4 70 -10 3 -5 32 -10 64 -10 31 0 62 -5 69 -12 7 -7 38 -10 80 -9 48 2 72 -2
80 -12 8 -9 30 -13 69 -11 37 1 66 -3 81 -13 14 -8 42 -13 68 -12 24 2 49 -2
56 -9 7 -7 42 -12 89 -12 52 0 79 -4 83 -12 5 -10 7 -10 12 0 4 9 85 12 354
12 222 0 351 4 355 10 3 6 49 10 101 10 63 0 102 5 117 14 15 10 57 14 140 14
74 0 123 4 132 12 8 6 43 10 85 9 43 -1 75 2 82 9 7 7 27 12 44 12 18 0 36 5
39 10 3 6 21 10 40 10 19 0 37 5 40 10 3 6 24 10 46 10 21 0 39 5 39 10 0 6
26 10 59 10 33 0 63 5 66 10 3 6 37 10 76 10 39 0 69 4 69 10 0 6 18 10 39 10
22 0 43 5 46 10 3 6 17 10 30 10 13 0 27 5 30 10 3 6 17 10 30 10 13 0 27 5
30 10 3 6 17 10 29 10 13 0 29 7 36 15 7 9 20 13 28 10 8 -3 23 2 33 11 10 9
25 14 33 11 8 -3 22 1 33 8 10 8 37 15 60 15 23 0 45 5 48 10 3 6 24 10 45 10
22 0 55 9 75 20 20 11 41 20 48 20 7 0 19 9 27 20 8 11 21 20 30 20 9 0 22 9
30 20 8 11 22 20 32 20 10 0 18 4 18 9 0 5 15 16 33 24 17 9 54 39 82 66 27
28 54 51 59 51 14 0 76 61 76 75 0 6 16 26 35 45 19 19 35 39 35 46 0 6 7 17
15 24 17 14 45 67 45 87 0 7 5 13 10 13 6 0 10 9 10 20 0 11 5 20 10 20 6 0
10 22 10 49 0 28 -4 53 -10 56 -5 3 -10 19 -10 36 0 16 -4 29 -10 29 -5 0 -10
9 -10 20 0 11 -4 20 -10 20 -5 0 -10 8 -10 18 0 10 -9 24 -20 32 -11 8 -20 22
-20 30 0 18 -195 210 -213 210 -7 0 -19 9 -27 20 -8 11 -20 20 -27 20 -16 0
-88 45 -98 60 -3 5 -14 10 -25 10 -10 0 -44 14 -75 30 -31 17 -70 30 -85 30
-16 0 -32 5 -35 10 -3 6 -19 10 -36 10 -16 0 -29 5 -29 10 0 6 -26 10 -59 10
-33 0 -63 -4 -66 -10 -3 -5 -37 -10 -75 -10 -38 0 -72 -4 -75 -10 -3 -5 -30
-10 -60 -10 -30 0 -57 -4 -60 -10 -9 -14 -119 -12 -133 2 -7 7 -12 25 -12 40
0 27 -3 36 -28 85 -7 13 -12 33 -12 46 0 13 -7 32 -15 43 -8 10 -15 29 -15 41
0 12 -4 25 -10 28 -5 3 -10 17 -10 30 0 13 -4 27 -10 30 -5 3 -10 17 -10 30 0
13 -4 27 -10 30 -5 3 -10 19 -10 36 0 16 -4 29 -10 29 -5 0 -10 14 -10 30 0
17 -4 30 -10 30 -5 0 -10 13 -10 29 0 17 -4 33 -10 36 -5 3 -10 17 -10 30 0
13 -4 27 -10 30 -5 3 -10 10 -10 16 0 14 26 11 40 -6 9 -11 22 -14 40 -10 18
4 31 1 40 -10 8 -10 26 -15 48 -13 21 1 37 -3 40 -10 2 -7 21 -12 42 -12 21 0
42 -4 45 -10 3 -5 21 -10 40 -10 19 0 37 -4 40 -10 3 -5 17 -10 30 -10 13 0
27 -4 30 -10 3 -5 24 -10 46 -10 21 0 39 -4 39 -10 0 -5 18 -10 39 -10 22 0
43 -4 46 -10 3 -5 21 -10 40 -10 19 0 37 -4 40 -10 3 -5 21 -10 40 -10 19 0
37 -4 40 -10 3 -5 24 -10 46 -10 21 0 39 -4 39 -10 0 -5 13 -10 29 -10 16 0
34 -6 40 -14 6 -7 22 -11 36 -8 16 3 33 -2 45 -13 13 -11 28 -15 43 -11 16 4
29 0 37 -9 7 -9 29 -15 51 -15 22 0 39 -4 39 -10 0 -5 18 -10 39 -10 22 0 43
-4 46 -10 3 -5 17 -10 30 -10 13 0 27 -4 30 -10 3 -5 21 -10 40 -10 19 0 37
-4 40 -10 3 -5 24 -10 46 -10 21 0 39 -4 39 -10 0 -5 18 -10 40 -10 22 0 40
-4 40 -8 0 -18 -26 -32 -62 -32 -21 0 -38 -4 -38 -10 0 -5 -20 -10 -43 -10
-24 0 -58 -7 -76 -16 l-33 -16 28 -29 c15 -16 36 -29 46 -29 10 0 18 -4 18
-10 0 -5 9 -10 20 -10 11 0 20 -4 20 -10 0 -5 9 -10 20 -10 11 0 25 -9 32 -20
7 -11 20 -20 29 -20 9 0 24 -9 34 -20 10 -11 23 -20 30 -20 7 0 20 -9 30 -20
10 -11 23 -20 30 -20 6 0 26 -16 45 -35 19 -19 39 -35 44 -35 14 0 186 -172
186 -186 0 -6 9 -19 20 -29 11 -10 20 -23 20 -30 0 -7 9 -20 20 -30 11 -10 20
-28 20 -41 0 -13 5 -26 10 -29 6 -3 10 -24 10 -46 0 -21 5 -39 10 -39 6 0 10
-59 10 -158 0 -146 -1 -158 -20 -170 -11 -7 -20 -20 -20 -30 0 -10 -9 -24 -20
-32 -11 -8 -20 -21 -20 -30 0 -9 -9 -22 -20 -30 -11 -8 -20 -22 -20 -30 0 -20
-193 -210 -212 -210 -7 0 -20 -9 -28 -20 -8 -11 -22 -20 -31 -20 -10 0 -19 -4
-21 -9 -3 -7 -62 -49 -109 -77 -11 -6 -27 -17 -36 -26 -10 -8 -53 -31 -95 -52
-43 -21 -80 -41 -83 -46 -7 -11 -158 -86 -168 -82 -4 1 -28 -9 -53 -23 -24
-14 -51 -25 -58 -25 -8 0 -40 -13 -71 -30 -31 -16 -70 -30 -85 -30 -16 0 -32
-4 -35 -10 -3 -5 -28 -10 -56 -10 -27 0 -49 -4 -49 -10 0 -6 -26 -10 -59 -10
-33 0 -63 -4 -66 -10 -3 -5 -24 -10 -46 -10 -21 0 -39 -4 -39 -10 0 -5 -18
-10 -40 -10 -22 0 -40 -4 -40 -10 0 -5 -13 -10 -29 -10 -16 0 -34 -6 -41 -14
-6 -8 -18 -12 -26 -9 -8 3 -23 -2 -33 -11 -12 -11 -31 -15 -64 -12 -32 2 -51
-1 -59 -11 -8 -10 -33 -14 -95 -12 -52 1 -88 -2 -96 -10 -6 -6 -37 -11 -69
-11 -32 0 -58 -4 -58 -10 0 -6 -30 -10 -69 -10 -39 0 -73 -4 -76 -10 -3 -5
-28 -10 -56 -10 -27 0 -49 -4 -49 -10 0 -6 -40 -10 -99 -10 -56 0 -103 -4
-106 -10 -4 -6 -60 -10 -135 -10 -75 0 -131 -4 -135 -10 -4 -6 -72 -10 -171
-10 -103 0 -164 -4 -164 -10 0 -6 -125 -10 -354 -10 -226 0 -357 4 -361 10 -4
6 -57 10 -126 10 -73 0 -119 4 -119 10 0 6 -42 10 -105 10 -63 0 -105 4 -105
10 0 6 -30 10 -69 10 -39 0 -73 5 -76 10 -3 6 -37 10 -76 10 -39 0 -69 4 -69
10 0 6 -36 10 -89 10 -50 0 -93 5 -96 10 -3 6 -32 10 -64 10 -31 0 -62 5 -69
12 -7 7 -33 11 -60 9 -33 -1 -52 2 -61 12 -8 10 -27 14 -62 12 -32 -2 -55 2
-64 11 -7 8 -34 14 -59 14 -25 0 -48 5 -51 10 -3 6 -26 10 -50 10 -24 0 -47 5
-50 10 -3 6 -28 10 -56 10 -27 0 -49 5 -49 10 0 6 -22 10 -49 10 -28 0 -53 5
-56 10 -3 6 -17 10 -30 10 -13 0 -27 5 -30 10 -3 6 -17 10 -30 10 -13 0 -27 5
-30 10 -3 6 -19 10 -36 10 -16 0 -29 5 -29 10 0 6 -9 10 -20 10 -11 0 -20 5
-20 10 0 6 -18 10 -39 10 -22 0 -43 5 -46 10 -3 6 -21 10 -39 10 -19 0 -39 7
-46 15 -7 9 -20 13 -28 10 -8 -3 -21 0 -30 7 -8 7 -22 13 -31 14 -23 1 -81 27
-81 36 0 4 -9 8 -20 8 -11 0 -20 5 -20 10 0 6 -6 10 -13 10 -7 0 -76 32 -152
70 -76 39 -144 70 -150 70 -18 0 -172 80 -186 96 -6 8 -17 14 -24 14 -6 0 -20
9 -30 20 -10 11 -23 20 -30 20 -7 0 -20 9 -30 20 -10 11 -23 20 -30 20 -6 0
-24 14 -40 30 -16 17 -33 30 -39 30 -14 0 -66 51 -66 65 0 6 -13 24 -30 40
-16 16 -30 34 -30 40 0 7 -9 20 -21 31 -11 10 -29 37 -40 61 -10 23 -23 44
-28 48 -25 15 -41 72 -41 142 0 42 -4 73 -10 73 -5 0 -10 16 -10 35 0 19 5 35
10 35 6 0 10 23 10 50 0 28 5 50 10 50 6 0 10 15 10 32 0 36 73 190 112 235 8
10 22 35 32 55 9 20 21 40 26 43 5 3 17 21 26 40 9 20 24 35 33 35 10 0 30 14
46 30 16 17 34 30 40 30 6 0 24 14 40 30 16 17 34 30 40 30 6 0 22 11 35 25
13 14 29 25 35 25 7 0 20 9 30 20 10 11 23 20 30 20 7 0 20 9 30 20 10 11 23
20 30 20 7 0 20 9 30 20 10 11 26 20 37 20 10 0 18 5 18 10 0 6 9 10 20 10 11
0 20 5 20 10 0 6 9 10 20 10 11 0 20 5 20 10 0 6 8 10 18 10 11 0 26 8 36 19
9 10 63 42 121 70 57 29 109 59 116 67 6 8 22 14 35 14 12 0 26 5 29 10 3 6
15 10 26 10 10 0 19 5 19 10 0 6 9 10 20 10 11 0 20 5 20 10 0 6 9 10 20 10
11 0 20 5 20 10 0 6 13 10 29 10 16 0 34 6 41 14 6 8 18 12 26 9 8 -3 22 1 32
9 28 23 69 41 80 34 5 -3 15 1 22 9 7 9 29 15 51 15 22 0 39 5 39 10 0 6 18
10 39 10 22 0 43 5 46 10 3 6 30 10 60 10 30 0 57 5 60 10 3 6 41 10 83 10 66
0 80 -3 92 -20z m1436 -2890 c6 -6 173 -11 439 -12 l430 -3 3 -65 c2 -36 7
-69 13 -74 5 -6 9 -98 9 -212 0 -125 4 -205 10 -209 6 -4 10 -92 10 -230 0
-138 4 -226 10 -230 6 -4 10 -98 10 -251 0 -156 4 -244 10 -244 6 0 10 -68 10
-184 0 -113 4 -187 10 -191 6 -4 10 -95 10 -240 0 -145 4 -236 10 -240 6 -4
10 -72 10 -171 l0 -164 -395 0 c-257 0 -395 4 -395 10 0 6 -65 10 -174 10
l-175 0 -3 151 c-2 111 0 153 10 161 9 8 12 65 12 224 0 131 4 215 10 219 6 4
10 95 10 240 0 145 4 236 10 240 6 4 10 95 10 240 0 145 4 236 10 240 6 4 10
77 10 185 0 108 4 181 10 185 6 4 10 95 10 240 0 145 4 236 10 240 6 3 10 37
10 76 0 67 5 80 26 59z"/>
</g>
</svg>
